<?xml version="1.0" encoding="UTF-8" standalone="yes"?>
<svg xmlns="http://www.w3.org/2000/svg" xmlns:xlink="http://www.w3.org/1999/xlink" width="612pt" height="792pt">
 <g id="SFixTitle" />
 <g id="SContent">
  <g transform="scale(1.33333)">
   <g>
    <g>
     <g />
     <g shape-rendering="crispEdges" />
    </g>
    <g>
     <g />
    </g>
    <g>
     <g />
    </g>
   </g>
   <g transform="matrix(1,0,0,1,54,72)">
    <defs>
     <clipPath id="CLIP0">
      <path d="M-0.5,-0.5 L203.5,-0.5 L203.5,223.5 L-0.5,223.5 Z " />
     </clipPath>
    </defs>
    <g clip-path="url(#CLIP0)">
     <g />
     <g shape-rendering="crispEdges" />
    </g>
    <defs>
     <clipPath id="CLIP1">
      <path d="M-0.5,-1.45363903 L203.5,-1.45363903 L203.5,224.546356201 L-0.5,224.546356201 Z " />
     </clipPath>
    </defs>
    <g clip-path="url(#CLIP1)">
     <g>
      <g />
     </g>
    </g>
    <defs>
     <clipPath id="CLIP2">
      <path d="M-0.5,-0.5 L203.5,-0.5 L203.5,223.5 L-0.5,223.5 Z " />
     </clipPath>
    </defs>
    <g clip-path="url(#CLIP2)">
     <g>
      <defs>
       <clipPath id="CLIP3">
        <path d="M0.25,0.25 L100.760437012,0.25 L100.760437012,12.105932236 L0.25,12.105932236 Z " />
       </clipPath>
      </defs>
      <g clip-path="url(#CLIP3)">
       <g>
        <g transform="matrix(1,0,0,1,1.05219209,63.71784592)">
         <text x="1" y="-22.25097656" font-family="Arial" font-size="105" fill="#8D785B">G</text>
        </g>
       </g>
      </g>
      <defs>
       <clipPath id="CLIP4">
        <path d="M0.25,12.605932236 L50.255218506,12.605932236 L50.255218506,24.461864471 L0.25,24.461864471 Z " />
       </clipPath>
      </defs>
      <g clip-path="url(#CLIP4)">
       <g>
        <g transform="matrix(1,0,0,1,1.05219209,23.74277115)">
         <text x="1" y="-2.11066413" font-family="Arial" font-size="9.96000004" fill="#000000">H</text>
        </g>
       </g>
      </g>
      <defs>
       <clipPath id="CLIP5">
        <path d="M0.25,24.961864471 L50.255218506,24.961864471 L50.255218506,36.8177948 L0.25,36.8177948 Z " />
       </clipPath>
      </defs>
      <g clip-path="url(#CLIP5)">
       <g>
        <g transform="matrix(1,0,0,1,1.05219209,36.09870148)">
         <text x="1" y="-2.11066413" font-family="Arial" font-size="9.96000004" fill="#000000">I</text>
        </g>
       </g>
      </g>
      <defs>
       <clipPath id="CLIP6">
        <path d="M0.25,37.3177948 L50.255218506,37.3177948 L50.255218506,49.173728943 L0.25,49.173728943 Z " />
       </clipPath>
      </defs>
      <g clip-path="url(#CLIP6)">
       <g>
        <g transform="matrix(1,0,0,1,1.05219209,48.45463562)">
         <text x="1" y="-2.11066413" font-family="Arial" font-size="9.96000004" fill="#000000">N</text>
        </g>
       </g>
      </g>
      <defs>
       <clipPath id="CLIP7">
        <path d="M0.25,49.673728943 L50.255218506,49.673728943 L50.255218506,61.529663086 L0.25,61.529663086 Z " />
       </clipPath>
      </defs>
      <g clip-path="url(#CLIP7)">
       <g>
        <g transform="matrix(1,0,0,1,1.05219209,60.81056976)">
         <text x="1" y="-2.11066413" font-family="Arial" font-size="9.96000004" fill="#000000">A</text>
        </g>
       </g>
      </g>
     </g>
    </g>
    <defs>
     <clipPath id="CLIP8">
      <path d="M-0.5,-0.5 L203.5,-0.5 L203.5,223.5 L-0.5,223.5 Z " />
     </clipPath>
    </defs>
    <g clip-path="url(#CLIP8)">
     <g />
    </g>
   </g>
   <g />
   <g />
   <g />
   <g>
    <g>
     <g />
     <g shape-rendering="crispEdges" />
    </g>
    <g>
     <g />
    </g>
    <g>
     <g />
    </g>
   </g>
  </g>
 </g>
 <defs />
</svg>
